<?xml version="1.0" encoding="utf-8"?>
<!-- Generator: Adobe Illustrator 22.1.0, SVG Export Plug-In . SVG Version: 6.00 Build 0)  -->
<svg version="1.1" id="Layer_1" xmlns="http://www.w3.org/2000/svg" x="0px" y="0px"
	 viewBox="0 0 220.5 113.6" style="enable-background:new 0 0 220.5 113.6;" xml:space="preserve">
<style type="text/css">
	.st0{fill:#FFFFFF;}
</style>
<g>
	<path class="st0" d="M44.8,31.5c-1.5-1.8-3.7-2.9-6-2.9c-5.1,0-8,4.7-8,9.3s3,9.1,7.9,9.1c2.3,0,4.5-1.2,6-2.9v6.3
		c-2,0.9-4,1.6-6.1,1.6c-7.6,0-13.3-6.6-13.3-14c0-7.7,5.4-14.5,13.4-14.5c2.1,0,4.2,0.6,6,1.6L44.8,31.5L44.8,31.5z"/>
	<path class="st0" d="M65.8,52.1c-8.3,0-13.4-6.3-13.4-14.3s5.3-14.2,13.4-14.2s13.4,6.2,13.4,14.2C79.2,45.8,74.1,52.1,65.8,52.1z
		 M65.8,28.8c-5,0-7.9,4.4-7.9,8.8c0,4.2,2.1,9.3,7.9,9.3c5.9,0,7.9-5.1,7.9-9.3C73.7,33.2,70.8,28.8,65.8,28.8z"/>
	<path class="st0" d="M87.2,24.3h7.5c7.8,0,13.1,5.9,13.1,13.6c0,7.6-5.4,13.5-13.1,13.5h-7.5V24.3z M92.4,46.8h0.9
		c6.5,0,9-3.6,9-8.9c0-5.9-3-8.9-9-8.9h-0.9V46.8z"/>
	<polygon class="st0" points="121,28.9 121,34.8 129.4,34.8 129.4,39.4 121,39.4 121,46.8 129.8,46.8 129.8,51.4 115.8,51.4 
		115.8,24.3 129.8,24.3 129.8,28.9 	"/>
	<path class="st0" d="M30.5,82.8l-2.7,6h-3.2L36,63.7l11.5,25.1h-3.2l-2.7-6H30.5z M36,70.3L31.7,80h8.5L36,70.3z"/>
	<polygon class="st0" points="58.4,72.9 58.3,72.9 55.5,88.8 52.4,88.8 57.3,63.7 65.6,82.7 73.8,63.7 78.7,88.8 75.7,88.8 
		72.8,72.9 72.8,72.9 65.6,89.3 	"/>
	<polygon class="st0" points="86.2,64.7 99.1,64.7 99.1,67.5 89.2,67.5 89.2,74.2 98.9,74.2 98.9,76.9 89.2,76.9 89.2,86 99.1,86 
		99.1,88.8 86.2,88.8 	"/>
	<path class="st0" d="M122.6,88.8H119l-7.1-10.2h-1.2v10.2h-3V64.7h3.6c2.1,0,4.4,0,6.3,1.1c2,1.2,3.2,3.4,3.2,5.7
		c0,3.4-2.3,6.3-5.8,6.7L122.6,88.8z M110.6,76.1h1c3.1,0,6.4-0.6,6.4-4.4s-3.6-4.3-6.5-4.3h-0.8L110.6,76.1L110.6,76.1z"/>
	<rect x="129.7" y="64.7" class="st0" width="3" height="24.1"/>
	<path class="st0" d="M159.5,69.3c-1.7-1.5-4.1-2.4-6.3-2.4c-5.4,0-9.5,4.5-9.5,9.8s4.1,9.8,9.4,9.8c2.4,0,4.6-0.9,6.4-2.5v3.5
		c-1.8,1.1-4.2,1.7-6.3,1.7c-6.9,0-12.5-5.5-12.5-12.4c0-7.1,5.7-12.7,12.8-12.7c2.1,0,4.2,0.5,6.1,1.6L159.5,69.3L159.5,69.3z"/>
	<path class="st0" d="M171.2,82.8l-2.7,6h-3.2l11.5-25.1l11.5,25.1H185l-2.7-6H171.2z M176.7,70.3l-4.3,9.7h8.6L176.7,70.3z"/>
	<path class="st0" d="M151.7,41c-0.8,1.3-1.7,2.8-2.5,4.3s-1.7,3.1-2.6,4.6c-0.9,1.5-1.9,3-3,4.4s-2.2,2.6-3.5,3.7
		c-1.3,1.1-2.7,1.9-4.2,2.6c-1.5,0.6-3.3,1-5.2,1c-0.6,0-1.3-0.1-2-0.2c-0.7-0.1-1.4-0.4-2-0.7s-1.1-0.7-1.5-1.3
		c-0.4-0.5-0.6-1.2-0.6-2c0-0.6,0.1-1.2,0.4-1.6c0.3-0.5,0.6-0.9,1.1-1.2c0.4-0.3,0.9-0.6,1.5-0.7c0.6-0.2,1.1-0.3,1.7-0.3
		c0.3,0,0.6,0,0.8,0s0.5,0.1,0.7,0.1V54c-1,0.1-1.8,0.4-2.5,1.1c-0.6,0.7-0.9,1.5-0.9,2.5c0,1.1,0.3,2,0.9,2.6c0.6,0.6,1.6,1,3,1
		c1.3,0,2.5-0.3,3.6-1s2.2-1.6,3.3-2.7c1.1-1.1,2.1-2.4,3-3.8c0.9-1.4,1.9-2.9,2.7-4.4c0.9-1.5,1.7-3,2.5-4.4s1.5-2.7,2.2-3.8h-3.1
		l0.3-0.6h3.1c0.6-1.1,1.3-2.2,2.2-3.5c0.8-1.3,1.8-2.5,2.8-3.6c1.1-1.1,2.2-2,3.5-2.8c1.3-0.7,2.6-1.1,4-1.1c0.4,0,0.9,0.1,1.3,0.2
		c0.4,0.1,0.8,0.3,1.1,0.5s0.6,0.5,0.8,0.8s0.3,0.7,0.3,1.2c0,0.8-0.3,1.3-0.8,1.7c-0.6,0.4-1.2,0.6-1.9,0.6c-0.2,0-0.4,0-0.6-0.1
		c0.2-0.4,0.4-0.8,0.5-1.2s0.2-0.9,0.2-1.4c0-0.6-0.1-1.1-0.4-1.4c-0.3-0.3-0.6-0.5-1-0.5c-0.5,0-1.1,0.2-1.7,0.6
		c-0.6,0.4-1.2,1-1.8,1.6c-0.6,0.7-1.1,1.4-1.7,2.2c-0.6,0.8-1.1,1.6-1.5,2.4c-0.5,0.8-0.9,1.5-1.3,2.2c-0.4,0.7-0.7,1.2-0.9,1.6
		h8.2l-0.4,0.6L151.7,41L151.7,41z"/>
	<path class="st0" d="M172.3,43.3c-0.4,0.6-0.9,1.1-1.5,1.5s-1.2,0.7-1.9,0.7c-0.5,0-0.9-0.1-1.3-0.3c-0.4-0.2-0.7-0.5-1-0.9
		c-0.3,1.1-0.7,2.1-1.3,3s-1.3,1.8-2.1,2.5s-1.8,1.3-2.8,1.7s-2.1,0.6-3.2,0.6c-1.2,0-2.1-0.3-2.8-1s-1.1-1.6-1.1-2.8
		c0-1.1,0.3-2.2,0.9-3.2c0.6-1,1.3-1.9,2.2-2.7s1.9-1.4,3-1.9s2.2-0.7,3.3-0.7s2.1,0.3,2.7,0.9c0.7,0.6,1.1,1.4,1.2,2.2
		c0.1,0.6,0.3,1.2,0.7,1.5c0.4,0.4,0.9,0.6,1.5,0.6s1.1-0.2,1.6-0.5s1.1-0.9,1.6-1.5L172.3,43.3z M159.1,51.2c0.5-0.4,1-0.8,1.5-1.4
		c0.5-0.6,0.9-1.2,1.4-1.9c0.4-0.7,0.8-1.4,1.1-2.2c0.3-0.7,0.5-1.4,0.7-2.1c0.2-0.7,0.3-1.2,0.3-1.7s-0.1-0.9-0.3-1.2
		s-0.6-0.4-1.1-0.4s-1.1,0.2-1.6,0.5c-0.5,0.4-1,0.8-1.5,1.4c-0.5,0.6-0.9,1.2-1.4,1.9c-0.4,0.7-0.8,1.4-1.1,2.2
		c-0.3,0.7-0.5,1.4-0.7,2.1c-0.2,0.7-0.3,1.2-0.3,1.7s0.1,0.9,0.3,1.2s0.6,0.4,1.1,0.4S158.6,51.6,159.1,51.2z"/>
	<path class="st0" d="M166,51.6c1.1-1.9,2.2-3.7,3.3-5.6c1.1-1.8,2.2-3.7,3.3-5.6l3.6-0.1l-4.2,5.9l0.1,0.1c0.8-1,1.5-1.8,2.2-2.4
		c0.6-0.6,1.2-1.1,1.6-1.5c0.5-0.4,0.9-0.7,1.2-0.9s0.6-0.4,0.7-0.5c0.2-0.2,0.5-0.4,0.7-0.6c0.2-0.1,0.4-0.2,0.7-0.3s0.6-0.1,1-0.1
		s0.9,0,1.5-0.1c-0.4,0.6-0.8,1.2-1.1,1.8s-0.5,1.3-0.5,2c0,0.9,0.5,1.4,1.4,1.4c0.3,0,0.6-0.1,0.9-0.2c0.3-0.1,0.6-0.3,0.8-0.5
		c0.3-0.2,0.5-0.4,0.7-0.6c0.2-0.2,0.4-0.4,0.6-0.6l0.1,0.2c-0.6,0.7-1.3,1.3-2.1,1.8s-1.7,0.7-2.6,0.7c-0.9,0-1.5-0.2-2-0.7
		c-0.5-0.4-0.7-1.1-0.7-2c0-0.6,0.2-1.1,0.5-1.6l-0.1-0.1c-0.9,0.6-1.7,1.3-2.6,2.1c-0.8,0.8-1.6,1.6-2.3,2.5s-1.3,1.8-1.9,2.7
		c-0.6,0.9-1.1,1.8-1.6,2.7L166,51.6z"/>
</g>
</svg>
