<svg width="56" height="43" viewBox="0 0 56 43" fill="none" xmlns="http://www.w3.org/2000/svg">
<path d="M26.7851 36.7703C26.7719 36.7703 26.7589 36.7677 26.7467 36.7626C26.7346 36.7574 26.7236 36.7499 26.7144 36.7404C26.6953 36.7208 26.6846 36.6945 26.6845 36.6672L26.747 25.1089L25.7974 23.7764C25.656 23.578 25.5987 23.332 25.6379 23.0917C25.6772 22.8514 25.8097 22.6362 26.0069 22.4928L26.8423 21.8849L26.7824 18.6283L26.0994 10.3456L25.1525 7.63177C25.1498 7.62108 25.1498 7.6099 25.1525 7.59921L25.1035 2.27194C25.1049 2.16703 25.1471 2.06677 25.2213 1.99233C25.2954 1.91789 25.3956 1.87511 25.5008 1.873L33.2586 2.0684L33.4844 0.201276C33.4877 0.1768 33.4996 0.1543 33.5181 0.137866C33.5366 0.121432 33.5604 0.112155 33.5851 0.111719H35.4082C35.4332 0.111573 35.4572 0.12065 35.4758 0.137192C35.4944 0.153735 35.5062 0.176568 35.5089 0.201276L35.9334 3.62614C36.6273 3.81069 37.3348 3.9708 38.0368 4.10378C39.5245 4.37772 41.0308 4.5392 42.5429 4.58684C42.9753 4.6023 43.3881 4.77064 43.7075 5.06177C44.3638 5.65458 45.0958 6.15829 45.8844 6.55981L45.9823 6.60866C46.8901 7.10261 47.8854 7.41598 48.9129 7.53136L55.2667 8.27767C55.3452 8.28775 55.4186 8.32199 55.4768 8.37563C55.5349 8.42927 55.5748 8.49964 55.591 8.57695C55.6071 8.65427 55.5987 8.73468 55.5669 8.80702C55.5352 8.87935 55.4816 8.94001 55.4136 8.98055L53.3782 10.1584L45.6422 16.9294L45.5415 20.509C45.5416 20.5221 45.5389 20.5352 45.5338 20.5473C45.5286 20.5594 45.5211 20.5704 45.5116 20.5795C44.9791 21.1102 44.3896 21.5807 43.7538 21.9826C43.4666 22.1343 43.233 22.3701 43.0844 22.6583C42.9888 22.8545 42.9529 23.0743 42.981 23.2906C43.0317 23.5225 43.1413 23.7374 43.2994 23.9148L43.3892 24.0424C43.5851 24.3138 43.781 24.6259 43.9687 24.9325C43.9799 24.9504 43.9856 24.9712 43.9851 24.9922L43.713 29.6247L50.2626 34.3767C50.2748 34.386 50.2849 34.3978 50.2919 34.4114C50.299 34.4251 50.3029 34.4401 50.3034 34.4554L50.3742 36.7106C50.3737 36.7387 50.3631 36.7657 50.3442 36.7866C50.3245 36.8056 50.2982 36.8163 50.2708 36.8164L26.7851 36.7703Z" fill="#9BCBEB"/>
<path d="M35.3919 0.203731C35.5407 1.37068 35.6894 2.53854 35.8382 3.7073C36.5212 3.88913 37.2477 4.05739 38.0151 4.20122C39.5065 4.48278 41.0176 4.64882 42.5348 4.69785C42.9393 4.71618 43.3245 4.87562 43.6232 5.14835C44.2855 5.74735 45.0249 6.25569 45.8218 6.65996C46.7668 7.18663 47.8074 7.52058 48.883 7.64237L55.2558 8.38596C55.3154 8.38967 55.3721 8.41282 55.4172 8.45186C55.4623 8.4909 55.4933 8.54365 55.5054 8.60198C55.5175 8.66031 55.51 8.72098 55.484 8.77463C55.4581 8.82829 55.4152 8.87195 55.3619 8.89888L53.3266 10.0794L45.5443 16.883L45.4436 20.506C44.9163 21.0316 44.3333 21.4984 43.7048 21.8982C43.3995 22.058 43.1514 22.3083 42.9946 22.6146C42.8911 22.8287 42.8514 23.068 42.8804 23.304C42.9184 23.5753 43.0382 23.7083 43.3076 24.0991C43.4436 24.2972 43.645 24.5985 43.8844 24.9865L43.6123 29.6733L50.2055 34.4606L50.2735 36.713L26.7825 36.6696L26.845 25.0761L25.8763 23.7192C25.8133 23.6322 25.7681 23.5336 25.7434 23.4291C25.7187 23.3246 25.715 23.2162 25.7324 23.1103C25.7499 23.0044 25.7882 22.9029 25.8451 22.8118C25.902 22.7207 25.9764 22.6417 26.0641 22.5794L26.9566 21.9362L26.894 18.6334L26.2137 10.3372L25.2586 7.59624L25.2124 2.26896C25.212 2.22953 25.2195 2.19042 25.2344 2.15389C25.2493 2.11736 25.2713 2.08413 25.2991 2.05612C25.3269 2.02811 25.36 2.00588 25.3965 1.99071C25.433 1.97554 25.4722 1.96773 25.5117 1.96773L33.3566 2.16584C33.431 1.51452 33.5062 0.863194 33.5824 0.211872H35.4028L35.3919 0.203731ZM35.4028 0.00833371H34.4885H33.577C33.5271 0.00929478 33.4792 0.0282334 33.4422 0.0616531C33.4052 0.0950729 33.3815 0.140717 33.3756 0.190161L33.1715 1.95687L25.5144 1.76419C25.4458 1.76259 25.3776 1.775 25.3139 1.80067C25.2503 1.82634 25.1926 1.86472 25.1444 1.91345C25.0972 1.96026 25.0601 2.01616 25.0353 2.07775C25.0105 2.13934 24.9985 2.20533 25.0001 2.27168L25.0518 7.59624C25.0488 7.61784 25.0488 7.63976 25.0518 7.66137L25.9988 10.3752L26.6845 18.6524L26.7444 21.8331L25.9525 22.4111C25.7337 22.5704 25.5865 22.8091 25.5427 23.0757C25.499 23.3422 25.5621 23.6153 25.7185 23.8359L26.6491 25.1385L26.5865 36.6669C26.5866 36.7209 26.6081 36.7726 26.6464 36.8107C26.685 36.8487 26.7364 36.871 26.7906 36.8732L50.2817 36.9166C50.3366 36.9167 50.3894 36.8952 50.4286 36.8569C50.4476 36.837 50.4625 36.8136 50.4723 36.788C50.4821 36.7624 50.4867 36.735 50.4858 36.7076L50.4177 34.4524C50.4166 34.4215 50.4084 34.3913 50.3938 34.364C50.3792 34.3367 50.3585 34.3131 50.3334 34.295L43.8273 29.5756L44.0749 25.2335V24.9947C44.0773 24.9528 44.0669 24.9111 44.045 24.8753C43.8545 24.5686 43.6586 24.2674 43.4627 23.9824L43.3729 23.8521C43.2234 23.688 43.1193 23.4878 43.0708 23.2714C43.0455 23.0753 43.0786 22.8762 43.1661 22.6988C43.3023 22.4336 43.517 22.2166 43.781 22.0773H43.7974C44.4388 21.67 45.0337 21.194 45.5715 20.658C45.6094 20.6204 45.6318 20.5701 45.6341 20.5168L45.732 16.9888L53.4354 10.2585L55.4545 9.08885C55.5409 9.03787 55.6093 8.9612 55.6499 8.86956C55.6905 8.77793 55.7014 8.67591 55.681 8.5778C55.6606 8.4797 55.61 8.3904 55.5362 8.32243C55.4624 8.25445 55.3691 8.21119 55.2694 8.19871L51.8926 7.80249L48.8994 7.4524C47.8928 7.33144 46.9191 7.01816 46.0314 6.5297L45.9334 6.48627C45.1525 6.08956 44.4278 5.5913 43.7783 5.00452C43.4397 4.69897 43.0046 4.52133 42.5484 4.50246C41.0423 4.45336 39.5422 4.28914 38.0613 4.01125C37.3838 3.8837 36.7008 3.73987 36.0314 3.55533L35.7919 1.67735L35.6015 0.184734C35.5973 0.132906 35.5731 0.0847138 35.534 0.050296C35.495 0.0158781 35.444 -0.00208256 35.3919 0.000192514L35.4028 0.00833371Z" fill="#9BCBEB"/>
<path d="M18.3791 42C18.3791 42 1 34.9491 1 13.2155C1 13.2155 14.2635 11.4462 18.3791 8C22.6739 11.5981 35 13.2155 35 13.2155C35 35.266 18.3791 42 18.3791 42Z" fill="white" stroke="#003865" stroke-miterlimit="10" stroke-linecap="round" stroke-linejoin="round"/>
<path d="M19.9734 25.9632H23.3945C23.7275 25.9632 24 25.6909 24 25.358V21.6299C24 21.297 23.7275 21.0247 23.3945 21.0247H19.9734V17.6052C19.9673 17.4358 19.9069 17.2845 19.7918 17.1755C19.6828 17.0666 19.5313 17 19.3679 17H15.632C15.299 17 15.0265 17.2723 15.0265 17.6052V21.0247H11.6055C11.2725 21.0247 11 21.297 11 21.6299V25.3641C11 25.6969 11.2725 25.9693 11.6055 25.9693H15.0265V29.3887C15.0265 29.5582 15.0931 29.7034 15.2082 29.8184C15.3172 29.9274 15.4685 29.9939 15.6381 30H19.3739C19.7069 30 19.9794 29.7277 19.9794 29.3948L19.9734 25.9632Z" fill="#9BCBEB" stroke="#003865" stroke-width="0.75" stroke-miterlimit="10" stroke-linecap="round" stroke-linejoin="round"/>
</svg>
