<?xml version="1.0" encoding="UTF-8"?>
<svg id="Layer_1" data-name="Layer 1" xmlns="http://www.w3.org/2000/svg" viewBox="0 0 140.14 85.52">
  <defs>
    <style>
      .cls-1 {
        fill: #fff;
      }

      .cls-2 {
        fill: #78be21;
      }
    </style>
  </defs>
  <path class="cls-2" d="M113.01,0C105.8,0,100.24,2.95,96.47,5.84c3.31,4.04,5.67,9.08,6.9,14.92,1.68-1.31,3.73-2.1,5.89-2.1,6.64,0,9.69,5.06,9.69,10.84v26.97c0,1.45,1.15,2.75,2.75,2.75h15.33c1.58,0,2.74-1.29,2.74-2.75V30.37C139.76,13.89,130.95,0,113.01,0"/>
  <path class="cls-1" d="M.1,4.13C.1,2.55,1.26,1.38,2.86,1.38h6.64c1.02,0,2.03,.72,2.46,1.59l2.45,5.93C18.03,5.14,24.67-.07,33.93-.07c8.1,0,13.73,3.04,18.94,8.82C56.2,5.42,62.99-.07,72.83-.07c17.93,0,26.74,13.89,26.74,30.36v26.18c0,1.45-1.16,2.75-2.74,2.75h-15.33c-1.59,0-2.76-1.29-2.76-2.75V29.43c0-5.78-3.03-10.84-9.69-10.84-5.05,0-9.68,4.19-9.68,9.84v28.04c0,1.45-1.15,2.75-2.75,2.75h-13.87c-1.59,0-2.76-1.29-2.76-2.75V29.43c0-5.78-2.59-10.84-9.1-10.84-5.78,0-10.12,4.19-10.12,10.12v27.76c0,1.45-1.29,2.75-2.74,2.75H2.86c-1.6,0-2.76-1.29-2.76-2.75V4.13Z"/>
  <path class="cls-1" d="M2.29,71.53c.02-.18,.2-.32,.36-.32h.32c.1,0,.28,.08,.34,.2l4.6,8.57h.04l4.6-8.57c.06-.12,.24-.2,.34-.2h.32c.16,0,.34,.14,.36,.32l2.24,13.33c.04,.26-.14,.44-.37,.44h-2.34c-.18,0-.36-.16-.38-.32l-.89-6.13h-.04l-3.33,6.43c-.06,.12-.24,.22-.34,.22h-.36c-.12,0-.28-.1-.34-.22l-3.35-6.43h-.04l-.87,6.13c-.02,.16-.18,.32-.37,.32H.43c-.24,0-.42-.18-.37-.44l2.24-13.33Z"/>
  <path class="cls-1" d="M21.5,71.41h2.38c.21,0,.38,.17,.38,.38v13.13c0,.21-.17,.38-.38,.38h-2.38c-.21,0-.38-.17-.38-.38v-13.13c0-.21,.17-.37,.37-.37Z"/>
  <path class="cls-1" d="M30.26,71.57c0-.2,.18-.36,.38-.36h.5l7.92,7.62h.02v-7.05c0-.2,.16-.37,.38-.37h2.38c.2,0,.38,.18,.38,.37v13.35c0,.2-.18,.36-.38,.36h-.32c-.06,0-.22-.06-.26-.1l-7.84-7.88h-.02v7.4c0,.2-.16,.38-.38,.38h-2.36c-.2,0-.38-.18-.38-.38l-.02-13.35Z"/>
  <path class="cls-1" d="M48.06,71.57c0-.2,.18-.36,.37-.36h.5l7.92,7.62h.02v-7.05c0-.2,.16-.37,.38-.37h2.38c.2,0,.38,.18,.38,.37v13.35c0,.2-.18,.36-.38,.36h-.32c-.05,0-.22-.06-.26-.1l-7.83-7.88h-.02v7.4c0,.2-.16,.38-.38,.38h-2.36c-.2,0-.37-.18-.37-.38l-.02-13.35Z"/>
  <path class="cls-1" d="M82.87,83.41l.93-1.65c.16-.26,.54-.22,.67-.12,.08,.04,1.51,1.09,2.82,1.09,.79,0,1.37-.5,1.37-1.19,0-.83-.69-1.47-2.04-2-1.71-.68-3.85-2-3.85-4.38,0-1.97,1.52-3.95,4.58-3.95,2.07,0,3.65,1.05,4.25,1.49,.24,.14,.2,.5,.12,.63l-1.01,1.53c-.14,.22-.49,.4-.68,.26-.18-.1-1.62-1.19-2.84-1.19-.72,0-1.25,.48-1.25,1.01,0,.73,.6,1.29,2.16,1.92,1.55,.62,4.01,1.83,4.01,4.53,0,2.04-1.77,4.11-4.68,4.11-2.58,0-4.01-1.07-4.46-1.53-.19-.2-.26-.28-.1-.56"/>
  <path class="cls-1" d="M103.42,71.21c3.97,0,7.14,3.19,7.14,7.16s-3.18,7.12-7.14,7.12-7.12-3.15-7.12-7.12,3.15-7.16,7.12-7.16m0,11.11c2.18,0,3.97-1.79,3.97-3.95s-1.78-3.99-3.97-3.99-3.95,1.81-3.95,3.99,1.78,3.95,3.95,3.95"/>
  <path class="cls-1" d="M117.45,74.33h-2.84c-.22,0-.38-.18-.38-.38v-2.16c0-.2,.16-.37,.38-.37h8.81c.23,0,.38,.18,.38,.37v2.16c0,.2-.16,.38-.38,.38h-2.84v10.59c0,.2-.18,.38-.38,.38h-2.38c-.2,0-.38-.18-.38-.38v-10.59Z"/>
  <path class="cls-1" d="M126.06,84.78l6.21-13.35c.06-.12,.2-.22,.34-.22h.2c.14,0,.28,.1,.34,.22l6.21,13.35c.12,.26-.04,.52-.34,.52h-2.2c-.35,0-.51-.12-.69-.5l-.72-1.57h-5.4l-.71,1.59c-.1,.24-.32,.48-.71,.48h-2.18c-.3,0-.46-.26-.34-.52m8.15-4.24l-1.51-3.28h-.02l-1.49,3.28h3.01Z"/>
  <path class="cls-1" d="M71.68,71.17c-3.9,0-6.84,3.09-6.84,7.18s2.96,7.18,6.88,7.18c1.92,0,3.81-.64,5.05-1.71,.2-.17,.31-.34,.32-.52,.02-.23-.12-.42-.23-.54l-.94-1.28c-.14-.17-.29-.26-.46-.26-.2,0-.39,.12-.64,.26-.54,.35-1.64,.95-2.9,.95-2.1,0-3.52-1.68-3.69-3.29h8.95c.39,0,.71-.3,.75-.69,.04-.25,.07-.69,.07-.92,0-3.62-2.71-6.34-6.31-6.34m-.03,2.87c1.47,0,2.75,1.19,2.92,2.68h-6.16c.27-1.57,1.6-2.68,3.25-2.68"/>
</svg>