<svg xmlns="http://www.w3.org/2000/svg" viewBox="0 0 142.48 180.98"><defs><style>.cls-1{fill:#e9f6ff;}</style></defs><g id="Layer_2" data-name="Layer 2"><path class="cls-1" d="M23.38,161.59a.36.36,0,0,1-.26-.11.39.39,0,0,1-.11-.27l.23-42.59-3.49-4.91a3.41,3.41,0,0,1,.77-4.73l3.07-2.24-.22-12L20.86,64.22l-3.48-10a.25.25,0,0,1,0-.12l-.18-19.63A1.49,1.49,0,0,1,18.66,33l28.51.72L48,26.84a.38.38,0,0,1,.37-.33l6.7,0a.37.37,0,0,1,.37.33L57,39.46c2.55.68,5.15,1.27,7.73,1.76A110.41,110.41,0,0,0,81.29,43a6.7,6.7,0,0,1,4.28,1.75,36.93,36.93,0,0,0,8,5.52l.36.18a29.34,29.34,0,0,0,10.77,3.4l23.35,2.75a1.4,1.4,0,0,1,.54,2.59l-7.48,4.34L92.68,88.48l-.37,13.19a.36.36,0,0,1-.11.26,37.67,37.67,0,0,1-6.46,5.17,5.84,5.84,0,0,0-2.46,2.49,4.12,4.12,0,0,0-.38,2.33,5.1,5.1,0,0,0,1.17,2.3l.33.47c.72,1,1.44,2.15,2.13,3.28a.4.4,0,0,1,.06.22l-1,17.07,24.07,17.51a.38.38,0,0,1,.15.29l.26,8.31a.43.43,0,0,1-.11.28.39.39,0,0,1-.27.11Z"/><path class="cls-1" d="M55,26.85q.82,6.45,1.64,12.91c2.51.67,5.18,1.29,8,1.82a108.14,108.14,0,0,0,16.61,1.83,6.35,6.35,0,0,1,4,1.66,37,37,0,0,0,8.08,5.57,30,30,0,0,0,11.25,3.62L128,57a1,1,0,0,1,.39,1.89l-7.48,4.35L92.31,88.31l-.37,13.35a37.78,37.78,0,0,1-6.39,5.13,6.13,6.13,0,0,0-2.61,2.64,4.57,4.57,0,0,0-.42,2.54c.14,1,.58,1.49,1.57,2.93.5.73,1.24,1.84,2.12,3.27l-1,17.27,24.23,17.64.25,8.3-86.33-.16.23-42.72-3.56-5a3,3,0,0,1,.69-4.2L24,106.93l-.23-12.17-2.5-30.57-3.51-10.1-.17-19.63a1.1,1.1,0,0,1,1.1-1.11h0l28.83.73q.41-3.6.83-7.2l6.69,0m0-.75H51.68l-3.35,0a.76.76,0,0,0-.74.67l-.75,6.51L18.7,32.6h0a1.85,1.85,0,0,0-1.36.55,1.8,1.8,0,0,0-.53,1.32L17,54.09a.86.86,0,0,0,0,.24l3.48,10L23,94.83l.22,11.72-2.91,2.13a3.79,3.79,0,0,0-.86,5.25l3.42,4.8-.23,42.48a.75.75,0,0,0,.22.53.8.8,0,0,0,.53.23l86.33.16h0a.77.77,0,0,0,.54-.22.76.76,0,0,0,.21-.55l-.25-8.31a.75.75,0,0,0-.31-.58L86,135.08l.91-16,0-.88a.76.76,0,0,0-.11-.44c-.7-1.13-1.42-2.24-2.14-3.29l-.33-.48a4.71,4.71,0,0,1-1.11-2.14,3.71,3.71,0,0,1,.35-2.11,5.35,5.35,0,0,1,2.26-2.29l.06,0a38.4,38.4,0,0,0,6.52-5.23.78.78,0,0,0,.23-.52l.36-13,28.31-24.8,7.42-4.31a1.77,1.77,0,0,0-.68-3.28l-12.41-1.46-11-1.29A29,29,0,0,1,94.1,50.16L93.74,50a36.42,36.42,0,0,1-7.92-5.46,7.18,7.18,0,0,0-4.52-1.85,108.32,108.32,0,0,1-16.49-1.81c-2.49-.47-5-1-7.46-1.68l-.88-6.92-.7-5.5A.74.74,0,0,0,55,26.1Z"/></g></svg>