<svg xmlns="http://www.w3.org/2000/svg" xmlns:xlink="http://www.w3.org/1999/xlink" version="1.1" x="0px" y="0px" viewBox="0 0 32 40" enable-background="new 0 0 32 32" xml:space="preserve"><g><path d="M24,8.6c-1.2-0.2-2.4,0.1-3.6,0.6c-1.1,0.5-2.4,0.8-3.6,0.9c0.1-0.6,0.7-3.7,4.1-4.1c0.4-0.1,0.7-0.5,0.7-0.9   c-0.1-0.4-0.5-0.7-0.9-0.7c-4,0.6-5.3,4-5.5,5.7l0,0c-1.3-0.1-2.5-0.4-3.7-0.9C10.4,8.7,9.2,8.4,8,8.6c-4.3,0.6-6.4,6.2-4.9,12.5   C4.7,27.4,9.4,32,13.6,31.4c0.1,0,0.2,0,0.4-0.1c1.3-0.3,2.7-0.3,4,0c0.1,0,0.2,0,0.4,0.1c4.3,0.6,9-4,10.5-10.3S28.3,9.2,24,8.6z"/><path d="M8.8,0.5H7.1v1.6c0,3.5,2.9,6.4,6.4,6.4h1.6V6.9C15.2,3.4,12.3,0.5,8.8,0.5z"/></g><text x="0" y="47" fill="#000000" font-size="5px" font-weight="bold" font-family="'Helvetica Neue', Helvetica, Arial-Unicode, Arial, Sans-serif">Created by Creative Stall</text><text x="0" y="52" fill="#000000" font-size="5px" font-weight="bold" font-family="'Helvetica Neue', Helvetica, Arial-Unicode, Arial, Sans-serif">from the Noun Project</text></svg>