<svg width="47" height="51" viewBox="0 0 47 51" fill="none" xmlns="http://www.w3.org/2000/svg">
<path d="M38.75 38.2084H8.25V33.125H38.75V38.2084ZM38.75 28.0417H8.25V22.9584H38.75V28.0417ZM38.75 17.875H8.25V12.7917H38.75V17.875ZM0.625 50.9167L4.4375 47.1042L8.25 50.9167L12.0625 47.1042L15.875 50.9167L19.6875 47.1042L23.5 50.9167L27.3125 47.1042L31.125 50.9167L34.9375 47.1042L38.75 50.9167L42.5625 47.1042L46.375 50.9167V0.083374L42.5625 3.89587L38.75 0.083374L34.9375 3.89587L31.125 0.083374L27.3125 3.89587L23.5 0.083374L19.6875 3.89587L15.875 0.083374L12.0625 3.89587L8.25 0.083374L4.4375 3.89587L0.625 0.083374V50.9167Z" fill="black"/>
</svg>